<svg xmlns="http://www.w3.org/2000/svg" width="192" height="640" viewBox="0 0 192 640" preserveAspectRatio="none">
  <defs>
    <linearGradient id="fadeLeft" x1="0%" y1="0%" x2="100%" y2="0%">
      <stop offset="0%" stop-color="#02120d" stop-opacity="0.95" />
      <stop offset="68%" stop-color="#0d4f32" stop-opacity="0.38" />
      <stop offset="100%" stop-color="#0d4f32" stop-opacity="0" />
    </linearGradient>
  </defs>
  <rect width="192" height="640" fill="url(#fadeLeft)" />
  <path d="M38 0c20 36 20 72 0 108s-20 72 0 108 20 72 0 108-20 72 0 108 20 72 0 108 20 72 0 100H0V0z" fill="#14532d" fill-opacity="0.52" />
  <path d="M24 0c14 30 14 60 0 90s-14 60 0 90 14 60 0 90-14 60 0 90 14 60 0 90 14 60 0 100H0V0z" fill="#166534" fill-opacity="0.38" />
</svg>
